<svg version="1.2" xmlns="http://www.w3.org/2000/svg" viewBox="0 0 2000 557" width="1024" height="285">
	<title>LOGO-MY CONCIERGE-ai</title>
	<style>
		.s0 { fill: #2a9887 } 
	</style>
	<g id="Layer 1">
		<g id="&lt;Group&gt;">
			<path id="&lt;Path&gt;" class="s0" d="m0 253.6h288.6v48.1h-288.6z"/>
			<path id="&lt;Path&gt;" class="s0" d="m0 0h288.6v216.5h-288.6z"/>
			<path id="&lt;Compound Path&gt;" class="s0" d="m428.6 49.9v130.5h-33.2v-178h44.5l66 127.4 66.6-127.4h44.7v178h-32.5v-131.6l-78.8 148.4z"/>
			<path id="&lt;Compound Path&gt;" class="s0" d="m717.2 118.7l-80.6-115.7h39.7l56.8 80.5 58.5-80.5h39.7l-81.2 114.3v63.1h-32.9z"/>
			<path id="&lt;Compound Path&gt;" class="s0" d="m399 286.4q7.5-16.4 20.2-28.5 12.7-12 30-19.2 17.3-7.1 37-7.1 14.3 0 27.4 4.3 13.2 4.3 24.7 11.8 11.5 7.5 20.6 18.1 9.1 10.5 15.1 23.3l-26 16.5q-4.5-9.4-11.1-17.4-6.5-7.9-14.6-13.9-8.1-6-17.2-9.3-9.1-3.2-18.6-3.2-13.2 0-24.6 4.8-11.5 4.8-20 13.1-8.6 8.2-13.6 19-5.1 10.8-5.1 22.8 0 11.9 5.1 22.7 5 10.8 13.6 18.9 8.5 8.1 20 12.8 11.4 4.7 24.3 4.7 8.6 0 17.1-2.8 8.5-2.9 16.5-8 7.9-5.1 14.4-12.1 6.6-6.9 11.7-15.5l23.3 22.2q-14.4 21.3-35.5 33.8-21.3 12.6-47.5 12.6-19.7 0-37-7.2-17.3-7.1-30-19.1-12.7-12.1-20.2-28.5-7.5-16.3-7.5-34.8 0-18.5 7.5-34.8z"/>
			<path id="&lt;Compound Path&gt;" class="s0" d="m630.2 338.7q3.2 8.4 8.8 16 5.7 7.7 13.6 14 7.9 6.2 17.8 10.5l-20.3 24.4q-12.6-6.2-22.7-15-10.2-8.8-17.3-19.5-7.2-10.7-11.1-22.7-3.8-12.1-3.9-24.9 0.1-18.2 7.4-34.6 7.3-16.3 20-28.4 12.7-12.1 30-19.2 17.3-7.1 37.3-7.1 19.7 0 37 7.1 17.3 7.1 30 19.2 12.7 12.1 20.2 28.4 7.4 16.4 7.4 34.6 0 13.1-4.2 25.1-4.2 12.1-11.8 22.8-7.6 10.7-18.2 19.5-10.6 8.8-23.4 14.7l-17.3-25q9.2-4.2 17.3-10.3 8.1-6.2 13.9-13.6 5.8-7.3 9.1-15.7 3.3-8.4 3.3-17.2 0-12-5.1-22.8-5.1-10.8-13.7-18.9-8.7-8.1-20.2-12.9-11.5-4.9-24-4.9-13.2 0-24.5 4.9-11.3 4.8-20 12.9-8.7 8.1-13.6 18.9-4.9 10.8-4.9 22.8 0 8.5 3.1 16.9z"/>
			<path id="&lt;Compound Path&gt;" class="s0" d="m845.3 273.7v136.2h-31.9v-177.4h42.1l99.1 135.6v-135.6h32.5v177.4h-40.6z"/>
			<path id="&lt;Compound Path&gt;" class="s0" d="m1023.2 286.4q7.5-16.4 20.2-28.5 12.7-12 30-19.2 17.3-7.1 37-7.1 14.3 0 27.5 4.3 13.1 4.3 24.6 11.8 11.5 7.5 20.6 18.1 9.1 10.5 15.1 23.3l-26 16.5q-4.5-9.4-11.1-17.4-6.5-7.9-14.6-13.9-8.1-6-17.2-9.3-9.1-3.2-18.6-3.2-13.1 0-24.6 4.8-11.5 4.8-20 13.1-8.5 8.2-13.6 19-5.1 10.8-5.1 22.8 0 11.9 5.1 22.7 5.1 10.8 13.6 18.9 8.5 8.1 20 12.8 11.5 4.7 24.3 4.7 8.7 0 17.2-2.8 8.5-2.9 16.4-8 7.9-5.1 14.5-12.1 6.5-6.9 11.6-15.5l23.3 22.2q-14.3 21.3-35.5 33.8-21.2 12.6-47.5 12.6-19.7 0-37-7.2-17.3-7.1-30-19.1-12.7-12.1-20.2-28.5-7.4-16.3-7.4-34.8 0-18.5 7.4-34.8z"/>
			<path id="&lt;Compound Path&gt;" class="s0" d="m1224.1 232.5h32v177.4h-32z"/>
			<path id="&lt;Compound Path&gt;" fill-rule="evenodd" class="s0" d="m1287.1 409.9v-177.4h141.8v29h-109.8v119.4h109.8v29zm45.7-98.7h94.3v29h-94.3z"/>
			<path id="&lt;Compound Path&gt;" class="s0" d="m1536.7 311.2h36.7q4.8 0 8.4-2.2 3.5-2.3 5.9-5.9 2.4-3.5 3.5-7.8 1-4.2 1-8.2 0-4.3-1.3-8.7-1.4-4.4-3.9-8.2-2.6-3.9-6.3-6.3-3.7-2.4-8.2-2.4h-79.1v148.4h-31.9v-177.4h114.6q9.9 0 18.8 4.1 9 4.1 15.7 11.5 6.7 7.4 10.7 17.5 4 10.1 4 21.8 0 9.1-2.9 17.7-3 8.7-8.2 15.7-5.3 6.9-12.4 11.9-7.2 5-15.3 6.7l37.7 70.5h-35z"/>
			<path id="&lt;Compound Path&gt;" fill-rule="evenodd" class="s0" d="m1647.4 321.2q0-18.5 7.5-34.8 7.5-16.4 20.2-28.5 12.6-12 30-19.2 17.3-7.1 37-7.1 14.3 0 27.4 4.3 13.2 4.3 24.7 11.8 11.4 7.5 20.6 18.1 9.1 10.5 15 23.3l-25.9 16.5q-4.5-9.4-11.1-17.4-6.5-7.9-14.6-13.9-8.1-6-17.2-9.3-9.1-3.2-18.6-3.2-13.2 0-24.7 4.8-11.5 4.8-20 13.1-8.5 8.2-13.5 19-5.1 10.8-5.1 22.8 0 11.9 5.1 22.7 5 10.8 13.5 18.9 8.5 8.1 20 12.8 11.5 4.7 24.4 4.7 8.6 0 17.1-2.8 8.5-2.9 16.5-8 7.9-5.1 14.4-12.1 6.6-6.9 11.7-15.5l23.3 22.2q-14.4 21.3-35.6 33.8-21.2 12.6-47.4 12.6-19.7 0-37-7.2-17.4-7.1-30-19.1-12.7-12.1-20.2-28.5-7.5-16.3-7.5-34.8zm78.8-10h95.9v29h-95.9z"/>
			<path id="&lt;Compound Path&gt;" fill-rule="evenodd" class="s0" d="m1858.2 409.9v-177.4h141.8v29h-109.9v119.4h109.9v29zm45.7-98.7h94.3v29h-94.3z"/>
			<g id="&lt;Group&gt;">
				<path id="&lt;Path&gt;" class="s0" d="m238 467c-6 10.8-13.8 20.2-23 28.1-9.3 7.9-20.1 14.3-32 19-23.9 9.2-51.9 9.2-75.8 0-11.9-4.7-22.7-11.1-31.9-19-9.3-7.9-17.2-17.4-23.3-28.1-4.8-8.3-7.8-17.2-9.9-26.2h-35.8c1.8 10.9 4.5 21.5 9 31.4 7.3 16.3 17.5 30.7 30.1 42.9 12.7 12.1 27.8 21.8 44.8 28.8 17 7 35.5 10.6 54.9 10.6 19.4 0 37.9-3.6 54.9-10.6 17.1-7 32.1-16.7 44.6-28.8 12.5-12.2 22.5-26.6 29.9-42.9 4.5-9.9 7.2-20.5 9-31.4h-35.8c-2.1 9.1-5.1 17.9-9.7 26.2z"/>
			</g>
			<g id="&lt;Group&gt;">
				<path id="&lt;Path&gt;" class="s0" d="m59.5 340.2h69v37.1h-69z"/>
				<path id="&lt;Path&gt;" class="s0" d="m160.1 340.2h69v37.1h-69z"/>
			</g>
		</g>
	</g>
</svg>